# xmcd CD database file
#
# Track frame offsets:
#	150
#	12764
#	24628
#	36608
#	48921
#	59704
#	70975
#	83901
#	96700
#	112553
#	122558
#	132815
#	144498
#	157126
#	168504
#	179671
#	193496
#
# Disc length: 2746 seconds
#
# Revision: 0
# Processed by: cddbd v1.5.2PL0 Copyright (c) Steve Scherf et al.
# Submitted via: CDex 1.51
#
DISCID=fd0ab811
DTITLE=WoodyGuthrie - Deja vu definitive gold CD3
DYEAR=2006
DGENRE=Blues
TTITLE0=I ain't got no home in this world anymore
TTITLE1=Jack Hammer blues
TTITLE2=Jesus Christ
TTITLE3=John Henry
TTITLE4=Johnny Hard
TTITLE5=Little black train
TTITLE6=Lonesome day
TTITLE7=Lost John
TTITLE8=Ludlow massacre
TTITLE9=Miner's song
TTITLE10=More pretty girls than one
TTITLE11=Old time religion
TTITLE12=Oregon trail
TTITLE13=Philadelphia lawyer
TTITLE14=Poor boy
TTITLE15=Pretty boy floyd
TTITLE16=Put my little shoes away
EXTD=YEAR: 2006
EXTT0=
EXTT1=
EXTT2=
EXTT3=
EXTT4=
EXTT5=
EXTT6=
EXTT7=
EXTT8=
EXTT9=
EXTT10=
EXTT11=
EXTT12=
EXTT13=
EXTT14=
EXTT15=
EXTT16=
PLAYORDER=
